<svg version="1.1" id="Слой_1" xmlns="http://www.w3.org/2000/svg" x="0" y="0" width="44.7" height="56.4" viewBox="0 0 44.7 56.4" xml:space="preserve"><style type="text/css">.st0{fill:#00a4ff}</style><path class="st0" d="M44 23.1c1.1-1.7.9-3.9-.5-5.4-.6-.7-.9-1.6-.7-2.4.4-2-.6-4-2.4-4.9-.8-.4-1.4-1.1-1.5-2-.3-2-2-3.5-4-3.7-.9-.1-1.7-.6-2.2-1.3-1-1.8-3.1-2.6-5.1-2-.9.3-1.8.1-2.5-.5-1.6-1.3-3.8-1.3-5.4 0-.7.6-1.6.7-2.5.5-2-.6-4 .2-5.1 2-.5.8-1.3 1.3-2.2 1.3-2 .1-3.7 1.6-4 3.7-.1.9-.7 1.6-1.5 2-1.9.9-2.8 2.9-2.4 4.9.2.9-.1 1.8-.7 2.4-1.4 1.5-1.6 3.7-.5 5.4.5.8.6 1.7.2 2.5-.8 1.9-.2 4 1.5 5.2.7.5 1.2 1.4 1.1 2.3 0 2 1.3 3.8 3.3 4.3.6.2 1.1.5 1.5 1l-4.5 11c-.3.7-.2 1.5.4 2.1.5.6 1.3.8 2 .6l5-1.5c.1 0 .3 0 .4.2l2.4 4.6c.3.7 1 1 1.7 1 .8 0 1.5-.5 1.8-1.2l4.7-11.4h.2l4.7 11.4c.3.7 1 1.2 1.7 1.2.8 0 1.5-.4 1.8-1l2.4-4.6c.1-.1.2-.2.4-.2l5 1.5c.7.2 1.5 0 2-.6s.7-1.4.4-2.1l-4.5-11c.4-.5.9-.8 1.5-.9 2-.5 3.3-2.3 3.3-4.3 0-.9.4-1.8 1.1-2.3 1.7-1.2 2.3-3.3 1.5-5.2-.4-.9-.3-1.8.2-2.6zM16 54.5c-.1.2-.2.2-.3.2-.1 0-.2 0-.3-.2L13 49.9c-.4-.8-1.4-1.2-2.3-1l-5 1.5c-.2.1-.3 0-.3-.1s-.1-.2-.1-.3l4-9.7c.9 1.2 2.4 1.9 4 1.8.9-.1 1.8.2 2.4.9 1.1 1.3 2.9 1.8 4.5 1.4L16 54.5zm23.4-4.4c.1.2 0 .3-.1.3 0 .1-.2.1-.3.1L34 49c-.9-.3-1.9.1-2.3 1l-2.4 4.6c-.1.2-.2.2-.3.2-.1 0-.2 0-.3-.2l-4.2-10.2c.4.1.8.2 1.2.2 1.2 0 2.4-.5 3.3-1.5.6-.7 1.5-1 2.4-.9 1.6.2 3.1-.5 4-1.8l4 9.7zm3.2-27.9c-.8 1.2-.9 2.7-.4 4.1.5 1.2.1 2.5-.9 3.3-1.2.8-1.9 2.2-1.8 3.7 0 1.3-.8 2.4-2 2.7-1.2.3-2.1 1-2.7 2.1-.1.2-.2.4-.3.7-.4 1.2-1.6 1.9-2.9 1.8-1.4-.2-2.9.4-3.8 1.5-.8 1-2.2 1.2-3.3.6-1.3-.7-2.8-.7-4.1 0-1.1.6-2.5.3-3.3-.6-.9-1.1-2.4-1.6-3.8-1.5-1.3.1-2.4-.6-2.9-1.8-.1-.2-.2-.5-.3-.7-.6-1-1.5-1.8-2.7-2.1-1.2-.3-2.1-1.4-2-2.7 0-1.4-.6-2.8-1.8-3.7-1-.7-1.4-2.1-.9-3.3.3-1.3.2-2.8-.6-4.1-.7-1.1-.6-2.5.3-3.4 1-1 1.4-2.5 1.1-3.9-.3-1.2.4-2.5 1.5-3 1.3-.6 2.2-1.8 2.5-3.3.2-1.2 1.2-2.1 2.5-2.2 1.4-.1 2.7-.9 3.5-2.2.6-1.1 1.9-1.6 3.2-1.2 1.4.4 2.9.1 4-.8 1-.8 2.4-.8 3.4 0 1.1.9 2.6 1.2 4 .8 1.2-.4 2.5.1 3.2 1.2.7 1.2 2 2.1 3.5 2.2 1.3.1 2.3 1 2.5 2.3.2 1.4 1.2 2.6 2.5 3.3 1.2.5 1.8 1.8 1.5 3-.3 1.4.1 2.9 1.1 3.9.7.9.9 2.3.2 3.3z"/><path class="st0" d="M38.6 23.3c-.5-.1-.9.3-.9.7-1 7.7-7.6 13.6-15.4 13.6-7.4 0-13.7-5.2-15.1-12.3-.2-1-.3-2-.3-3.1 0-4.2 1.7-8.1 4.5-10.9l.1-.1c2.8-2.7 6.6-4.3 10.7-4.3 7.8 0 14.4 5.8 15.4 13.6.1.4.4.7.8.7h.1c.5-.1.8-.5.7-.9-1.1-8.6-8.4-15-17-15-.6 0-1.3 0-1.9.1h-.2c-3.8.5-7.2 2.2-9.8 4.7l-.2.2c-2.6 2.6-4.4 6.1-4.9 10v.2c-.1.6-.1 1.3-.1 1.9 0 .6 0 1.2.1 1.8v.1c.1.5.1.9.2 1.4 1.4 7.1 7.3 12.7 14.7 13.6.2 0 .3 0 .5-.1.5.1 1.1.1 1.6.1 8.6 0 15.9-6.5 17-15 .2-.5-.1-.9-.6-1z"/></svg>