<svg version="1.1" id="Layer_1" xmlns="http://www.w3.org/2000/svg" x="0" y="0" width="54.8" height="51.1" viewBox="0 0 54.8 51.1" xml:space="preserve"><style type="text/css">.st0{fill:#00a4ff}</style><path class="st0" d="M35.1 15.3h-6.3V8.4c0-1.2-1-2.3-2.3-2.3-.8 0-1.5.4-1.9 1.1v.1l-3.5 7.3c-.3.7-.5 1.5-.6 2.2h-4.7c-.4 0-.7.3-.7.7v10.3c0 .4.3.7.7.7H21c.5 1 1.6 1.5 2.7 1.5h9.6c1.4 0 2.7-1 3-2.4l1.9-8.6c.4-1.7-.7-3.3-2.4-3.6-.2-.1-.5-.1-.7-.1zM16.6 27.2v-9h4v9h-4zm20.2-8.5L35 27.3c-.2.8-.9 1.4-1.7 1.4h-9.6c-1 0-1.7-.8-1.7-1.7v-9.9c0-.7.2-1.3.4-1.9L25.9 8c.3-.4.9-.5 1.3-.3.3.2.4.5.4.8V16c0 .4.3.7.7.7h6.9c1 0 1.7.8 1.7 1.7 0 .1-.1.2-.1.3z"/><path class="st0" d="M33.3 30.3h-9.6c-1.1 0-2.2-.6-2.8-1.5H16c-.5 0-.9-.4-.9-.9V17.5c0-.5.4-.9.9-.9h4.5c.1-.7.2-1.4.6-2.1l3.5-7.4c.5-.8 1.3-1.2 2.1-1.2.7 0 1.3.3 1.8.7.5.5.7 1.1.7 1.8V15h6c.2 0 .5 0 .7.1 1.8.4 2.9 2.1 2.5 3.9l-1.9 8.6c-.3 1.6-1.7 2.7-3.2 2.7zM15.9 17.1c-.2 0-.4.2-.4.4v10.3c0 .2.2.4.4.4h5.2l.1.1c.5.9 1.4 1.4 2.4 1.4h9.6c1.3 0 2.5-.9 2.8-2.2l1.9-8.6c.3-1.5-.6-3-2.2-3.3-.2 0-.4-.1-.6-.1h-6.5V8.4c0-.5-.2-1-.6-1.4-.4-.4-.9-.6-1.4-.6-.7 0-1.4.4-1.7 1l-3.5 7.3c-.3.7-.5 1.4-.5 2.1v.2h-5zM33.3 29h-9.6c-1.1 0-2-.9-2-2v-9.9c0-.7.2-1.4.5-2l3.5-7.2c.4-.6 1.1-.7 1.6-.4.3.2.5.6.5 1V16c0 .2.2.4.4.4h6.9c1.1 0 2 .9 2 2v.4l-1.9 8.6c-.2.9-1 1.6-1.9 1.6zM26.6 7.8c-.2 0-.4.1-.6.3l-3.4 7.2c-.3.6-.4 1.2-.4 1.8V27c0 .8.7 1.5 1.5 1.5h9.6c.7 0 1.3-.5 1.4-1.2l1.9-8.6v-.3c0-.8-.7-1.5-1.5-1.5h-6.9c-.5 0-.9-.4-.9-.9V8.4c0-.2-.1-.4-.3-.6h-.4zm-6 19.6h-4.3v-9.5h4.5v9.5h-.2zm-3.8-.5h3.5v-8.5h-3.5v8.5z"/><path class="st0" d="M51.9 38.4H21c-.6 0-1-.4-1-1s.4-1 1-1h30.9c.4 0 .8-.4.8-.8V2.8c0-.4-.4-.8-.8-.8H2.8c-.4 0-.8.4-.8.8v32.8c0 .4.4.8.8.8h9.1c.6 0 1 .4 1 1s-.4 1-1 1H2.8c-1.6 0-2.8-1.3-2.8-2.8V2.8C0 1.3 1.3 0 2.8 0h49.1c1.6 0 2.8 1.3 2.8 2.8v32.8c.1 1.5-1.2 2.8-2.8 2.8z"/><path class="st0" d="M10.9 51.1V37.4c0-.6.4-1 1-1s1 .4 1 1v8.2l7.3-8.8c.4-.4 1-.5 1.4-.1.4.4.5 1 .1 1.4l-10.8 13z"/></svg>