<svg version="1.1" id="Слой_1" xmlns="http://www.w3.org/2000/svg" x="0" y="0" width="74.5" height="42.8" viewBox="0 0 74.5 42.8" xml:space="preserve"><path d="M63.4 41.8c-.4 0-.8-.3-1-.7l-.3-.6c-.4-.8-.8-1.7-.4-2.6.2-.3.4-.5.7-.7 0-.1 0-.2-.1-.3-.2.2-.4.3-.7.5-.5.2-1.1 0-1.3-.5l-.1-.1h-.8c-.5 0-1.2 0-1.9-.3-1.1-.4-1.7-1.4-2-2-.1-.1-.1-.2-.2-.3-.4 0-.8.1-1.3.3.3 1.4-.1 3-.6 3.9-.2.4-.8.7-1.2.5-.3-.1-.6-.1-.9-.1h-.8c-.7.7-1.7 1.1-2.9 1.1-.7 0-1.3-.1-2-.2-.8-.1-1.6-.2-2.3-.1-.2 0-.5 0-.7-.1-.5-.3-.9-.6-1.2-.9-.3-.2-.6-.5-.8-.6v.3c0 .3 0 .6-.1.8-.1.4-.5.8-1 .8h-.1c-.8 0-1.5-.2-2.3-.4-.5-.4-1.1-.5-1.6-.5-.4 0-.9.1-1.4.6-.3.3-.9.4-1.3.2-.2-.1-.3-.2-.5-.3-.7-.4-1.7-.9-2.2-2-.4-.1-.7-.2-1-.4-.1 0-.1-.1-.2-.1-.4 0-.8-.1-1-.5-.5-.8-.7-2-.9-3.3h-1c-.3 0-.6-.1-.8-.3-.2-.2-.3-.4-.3-.7-.1 0-.1-.1-.2-.1-.2-.1-.3-.2-.5-.3-.4-.3-.6-.7-.5-1.2v-.2c-.4-.1-.8-.1-1.2-.2-.8-.1-1.7-.2-2.5-.6-.2.3-.5.5-.8.7v.4c0 .3-.1.6-.3.8-.2.2-.5.3-.8.3-1.5 0-2.3-1-2.7-1.7-1.4-.3-1.9-1.4-2.2-2.1-.4-.8-.5-.9-.9-.9 0 0 0 0 0 0-.1.2-.2.3-.3.4-.2.2-.6.3-.9.3-.3 0-.7-.2-1-.5 0 0 0 0 0 0 .1 1.2-.2 2-.4 2.6-.1.3-.3.5-.6.6-.3.1-.6.1-.9 0-.5-.2-.7-.2-1-.2 0 .1 0 .2.1.3.1.4.1.8-.2 1.1-.2.2-.4.3-.6.3-.1.4-.3 1.1-1 1.4-.2.1-.3.1-.5.1-1.8-.2-1.8-1.9-1.9-2.8v-.5C2 28.8 1.4 27 1 25.3v-1.7c0-.4.2-.7.5-.9.3-.2.7-.2 1.1 0 .8.4 1.7.1 2.8-.4h.1c-.3-1.3-.2-2.3-.1-3.2.1-.7.1-1.3-.1-2-.1-.4 0-.8.2-1.1.5-.5 1-.6 1.4-.5.2-.4.4-.7.8-1-.1-.1-.2-.3-.3-.5-.1-.3 0-.6.2-.9.4-.5 1.7-2.2 3.6-2.2h.2c.2-.3.4-.4.6-.5.1-.1.2-.1.3-.1.8-.1 1.3 0 1.7.1.1 0 .2.1.3.1.7-.8 1.4-1.3 2.2-1.9.8-.5 1.5-1.1 2-1.7.2-.2.4-.4.7-.4.8-.1 1.3 0 1.7.1.1 0 .2.1.3.1.3 0 .6.2.7.4.2.2.3.5.2.8-.1.3 0 .7.1 1.2.1.6.2 1.3.2 2.1.4-.1.9 0 1.3.2.3.2.5.6.5 1 0 .2 0 .3-.1.4.9.2 1.7.7 2.3 1.2.2.1.3.2.5.3l.2-.2c.3-.3.7-.3 1.1-.2.6.2 1 .6 1.3.9.8-1.6 2.1-2.3 3.6-1.9.4.1.7.3.8.7.1.2.1.4.1.5.2-.1.3-.1.5-.1.1-.2.2-.3.3-.4.3-.3.7-.4 1-.2h.7v-.1c0-.4.2-.7.5-.9.6-.4 1.4-.5 2.1-.7 1.3-.3 1.6-.5 1.7-.9.1-.5.4-.9.9-.9.5-.1.9.2 1.2.6 0 .1.1.1.2.2l.1.1h1c.3 0 .6.2.8.4.6.8.7 1.6.5 2.3.5 0 1 0 1.5.1.3-.5 1-1.3 2.5-1.1.3 0 .6.2.8.5.1.2.2.4.3.7 0 .1.1.1.1.2.3-.3.6-.5.9-.6.1-.1.4-.2.4-.3 0 0 0-.1-.1-.4-.2-.5 0-1.1.5-1.4l.2-.1c.3-.2.7-.4 1.3-.4.1-.2.2-.3.4-.4.3-.2.7-.2 1-.1.8.4 1.2.2 1.9-1 .1-.2.4-.4.6-.5.6-.2 1.1-.1 1.4.1 0 0 0-.1.1-.1.2-.4.6-.9 1.1-1.3v-.1c0-.2 0-.4.1-.5.8-2 2.4-3.4 4.8-4.2-.1-.2.4-.6.7-.8l.3-.3c.3-.5 1-.7 1.5-.3.6.3.8.9.9 1.2 0 0 0 0 0 0 .3 0 .6.2.8.5.2.3.3.8.1 1.2-.2.3-.8 1.3-1.6 1.9.1.1.2.3.2.5h1.1c.5-.1.9.2 1.1.7.2.5 0 1-.4 1.3-.2.1-.3.2.1 1.3.2.7.5 1.5.4 2.5-.1.8-.5 1.4-.9 2-.2.3-.5.7-.5.9 0 .7.1.8 1.7 1.2l.4.1c.3.1.5.3.7.6.1.3.1.6 0 .8.2.1.4.2.5.4.2.3.3.6.2 1-.2.7 0 1.2.4 2.1.3.6.5 1.3.6 2.2 0 .3-.1.7-.3.9-.3.2-.6.3-.9.3-4.1-.8-5.2-4.6-6.1-7.8-.1 0-.3-.1-.4-.1-.1.5 0 1.2.2 1.3.3.1.5.3.6.6.1.3.1.6-.1.9-.5 1-1.5 1.5-2.4 1.7-1.7 1.1-2.3 3.5-2.8 6.6h.1c0-.1.1-.2.1-.3.1-.3.4-.5.7-.5.7-.2 1.3.1 1.5.2.4-.1.8.1 1 .4 2.4 2.9 3.3 9.3.8 12.9-.2.3-.5.5-.9.5h-.3c-.1.3-.4.6-.7.6h-.3z" fill="none" stroke="#00a4ff" stroke-width="2" stroke-miterlimit="10"/></svg>