<svg version="1.1" id="Слой_1" xmlns="http://www.w3.org/2000/svg" x="0" y="0" width="46.6" height="46.6" viewBox="0 0 46.6 46.6" xml:space="preserve"><style type="text/css">.st0{fill:#00a4ff;stroke:#fff;stroke-width:.15;stroke-miterlimit:10}</style><path class="st0" d="M20.4 46.5c-.7 0-1.3-.3-1.7-.7L.8 27.9c-.9-.9-.9-2.5 0-3.4l23.7-23C25.2.8 26.6.2 27.7.2h16.5c1.3 0 2.4 1.1 2.4 2.4V19c0 1.1-.6 2.5-1.3 3.2l-23 23.6c-.6.5-1.2.7-1.9.7zM27.6 2c-.6 0-1.5.4-1.9.8L2 25.8c-.2.2-.2.5 0 .8l17.9 17.9c.2.2.6.2.8 0l23-23.6c.4-.4.8-1.3.8-1.9V2.5c0-.3-.2-.5-.5-.5H27.6z"/><path class="st0" d="M37.9 12.7c-2.2 0-4-1.8-4-4s1.8-4 4-4 4 1.8 4 4-1.8 4-4 4zm0-6.1c-1.2 0-2.1 1-2.1 2.1 0 1.2 1 2.1 2.1 2.1 1.2 0 2.1-1 2.1-2.1 0-1.2-.9-2.1-2.1-2.1zM21.2 23.2c-1.1 0-2.1-.4-2.9-1.2-.8-.8-1.2-1.8-1.2-2.9 0-1.1.4-2.1 1.2-2.9.8-.8 1.8-1.2 2.9-1.2 1.1 0 2.1.4 2.9 1.2 1.6 1.6 1.6 4.1 0 5.7-.8.9-1.9 1.3-2.9 1.3zm0-6.2c-.6 0-1.1.2-1.5.6-.4.4-.6.9-.6 1.5s.2 1.1.6 1.5c.8.8 2.2.8 3 0 .8-.8.8-2.2 0-3-.4-.3-1-.6-1.5-.6zm-.6 20.7c-1.1 0-2.1-.4-2.9-1.2-1.6-1.6-1.6-4.1 0-5.7.8-.8 1.8-1.2 2.9-1.2 1.1 0 2.1.4 2.9 1.2 1.6 1.6 1.6 4.1 0 5.7-.8.8-1.8 1.2-2.9 1.2zm0-6.2c-.6 0-1.1.2-1.5.6-.8.8-.8 2.2 0 3 .8.8 2.2.8 3 0 .8-.8.8-2.2 0-3-.4-.4-.9-.6-1.5-.6zm9.3-4.1H11.3c-.6 0-1-.5-1-1 0-.6.5-1 1-1h18.6c.6 0 1 .5 1 1 0 .6-.4 1-1 1z"/></svg>