<svg version="1.1" id="Слой_1" xmlns="http://www.w3.org/2000/svg" x="0" y="0" width="49.6" height="49.6" viewBox="0 0 49.6 49.6" xml:space="preserve"><path d="M3.2 35.5c1.5-1.5 3.4-2.2 5.5-2.2l18.7-18.7c-1-3.7 0-7.7 2.8-10.4 2.8-2.9 7.1-4.1 12-2.3l-6.9 6.9.9 4.5 4.5.9 6.9-6.9c1.8 4.9.6 9.2-2.3 12-2.7 2.7-6.7 3.8-10.4 2.8L16.4 40.8c0 2.1-.8 4-2.2 5.5-3.1 3.1-8.1 2.8-10.9 0-3.1-3-3.1-7.8-.1-10.8zM6 43.6c1.2 1.2 3.6 1.8 5.4 0 1.5-1.5 1.5-3.9 0-5.4-1.5-1.5-3.9-1.5-5.4 0-1.5 1.5-1.5 3.9 0 5.4z" fill="none" stroke="#00a4ff" stroke-width="2" stroke-miterlimit="10"/></svg>