<svg version="1.1" id="Слой_1" xmlns="http://www.w3.org/2000/svg" x="0" y="0" width="57.5" height="39.7" viewBox="0 0 57.5 39.7" xml:space="preserve"><style type="text/css">.st0{fill:#00a4ff}</style><path class="st0" d="M35.7 23v8.1H16c-1-2.2-3.3-3.9-6-3.9s-5 1.7-6 3.9H2.4c-.6 0-.9-.4-.9-1V23h34.2m1.5-1.5H0v8.6c0 1.4 1.1 2.5 2.4 2.5H5l.4-.9c.8-1.8 2.7-3.1 4.7-3.1s3.8 1.2 4.7 3.1l.4.9h22.2V21.5h-.2z"/><path class="st0" d="M10 29.3c2.5 0 4.5 2 4.5 4.5s-2 4.5-4.5 4.5-4.5-2-4.5-4.5 2-4.5 4.5-4.5m0-1.5c-3.3 0-6 2.7-6 6s2.7 6 6 6 6-2.7 6-6-2.7-6-6-6zm41.1-9.9l4.3 1.9c.4.2.6.6.6 1v9.4c0 .6-.4 1-.9 1h-2.5c-1-2.2-3.3-3.9-6-3.9s-5 1.7-6 3.9h-3.1V17.9h13.6m.3-1.5H35.8v16.2h5.6l.4-.9c.8-1.8 2.7-3.1 4.7-3.1s3.8 1.2 4.7 3.1l.4.9H55c1.4 0 2.4-1.1 2.4-2.5v-9.4c0-1-.5-1.9-1.4-2.3l-4.3-1.9-.3-.1z"/><path class="st0" d="M44.1 8.6c1.1 0 2.2.6 2.7 1.6l2.9 5.5H37.3V8.6h6.8c-.1 0-.1 0 0 0m0-1.5h-8.3v10.1h16.3L51 15l-2.9-5.5c-.8-1.4-2.3-2.4-4-2.4z"/><path class="st0" d="M32.7 1.5c1.7 0 3 1.4 3 3.1v17H1.5v-17c0-1.7 1.3-3.1 3-3.1h28.2m0-1.5H4.5C2 0 0 2.1 0 4.6v18.5h37.2V4.6c.1-2.5-2-4.6-4.5-4.6zm13.8 29.3c2.5 0 4.5 2 4.5 4.5s-2 4.5-4.5 4.5-4.5-2-4.5-4.5 2-4.5 4.5-4.5m0-1.5c-3.3 0-6 2.7-6 6s2.7 6 6 6 6-2.7 6-6c-.1-3.3-2.8-6-6-6z"/></svg>